<svg xmlns="http://www.w3.org/2000/svg" version="1.1" xmlns:xlink="http://www.w3.org/1999/xlink" xmlns:svgjs="http://svgjs.dev/svgjs" width="1000" height="623" viewBox="0 0 1000 623"><g transform="matrix(1,0,0,1,-0.6060606060606233,0.2522267206477409)"><svg viewBox="0 0 396 247" data-background-color="#444444" preserveAspectRatio="xMidYMid meet" height="623" width="1000" xmlns="http://www.w3.org/2000/svg" xmlns:xlink="http://www.w3.org/1999/xlink"><g id="tight-bounds" transform="matrix(1,0,0,1,0.2400000000000091,-0.09999999999999432)"><svg viewBox="0 0 395.52 247.2" height="247.2" width="395.52"><g><svg></svg></g><g><svg viewBox="0 0 395.52 247.2" height="247.2" width="395.52"><g transform="matrix(1,0,0,1,39.55199999999999,90.60071513706794)"><svg viewBox="0 0 316.416 65.99856972586412" height="65.99856972586412" width="316.416"><g><svg viewBox="0 0 316.416 65.99856972586412" height="65.99856972586412" width="316.416"><g><svg viewBox="0 0 316.416 65.99856972586412" height="65.99856972586412" width="316.416"><g><svg viewBox="0 0 316.416 65.99856972586412" height="65.99856972586412" width="316.416"><g id="textblocktransform"><svg viewBox="0 0 316.416 65.99856972586412" height="65.99856972586412" width="316.416" id="textblock"><g><svg viewBox="0 0 316.416 65.99856972586412" height="65.99856972586412" width="316.416"><g transform="matrix(1,0,0,1,0,0)"><svg width="316.416" viewBox="2.25 -35 167.7899932861328 35" height="65.99856972586412" data-palette-color="#ffffff"><path d="M12-35L21.15-35 21.15-30.6 12.3-30.6Q7.25-30.6 7.25-26.5L7.25-26.5Q7.25-24.3 9.47-22.78 11.7-21.25 15.5-19.85L15.5-19.85Q17.2-19.2 18.4-18.53 19.6-17.85 20.8-16.75 22-15.65 22.6-13.93 23.2-12.2 23.2-9.95L23.2-9.95Q23.2-7.45 22.15-5.48 21.1-3.5 19.45-2.38 17.8-1.25 16.07-0.68 14.35-0.1 12.7-0.05L12.7-0.05Q12 0 10.7 0L10.7 0 2.9 0 2.9-4.4 10.55-4.4Q13.95-4.4 16.1-5.83 18.25-7.25 18.25-10L18.25-10Q18.25-11.35 17.65-12.38 17.05-13.4 15.93-14.15 14.8-14.9 13.63-15.45 12.45-16 10.8-16.6L10.8-16.6Q10.35-16.75 10.1-16.85L10.1-16.85Q2.25-19.85 2.25-26.65L2.25-26.65Q2.25-30.85 4.95-32.93 7.65-35 12-35L12-35ZM32.65-12.8L32.65 0 28.2 0 28.2-22Q28.2-27.4 31.67-31.2 35.15-35 40.65-35L40.65-35 52.1-35 52.1 0 47.4 0 47.4-30.6 40.65-30.6Q37-30.6 34.82-28.45 32.65-26.3 32.65-21.6L32.65-21.6 32.65-17.35Q35.45-20.3 40.65-20.3L40.65-20.3 45.2-20.3 45.2-15.9 40.65-15.9Q37.75-15.9 35.92-15.2 34.1-14.5 32.65-12.8L32.65-12.8ZM78.75-4.4L78.75 0 58.85 0 58.85-26.65Q58.85-30.35 61.2-32.6L61.2-32.6Q62.8-34.1 64.8-34.55 66.8-35 69.7-35L69.7-35 78.75-35 78.75-30.6 69.05-30.6Q63.55-30.6 63.55-26L63.55-26 63.55-20.3 75.09-20.3 75.09-15.9 63.55-15.9 63.55-4.4 78.75-4.4ZM108.54-17.5L108.54-17.5Q108.49-9.15 103.92-4.58 99.34 0 91.29 0L91.29 0 84.49 0 84.49-35 91.29-35Q99.34-35 103.92-30.43 108.49-25.85 108.54-17.5ZM89.19-4.4L91.89-4.4Q97.44-4.4 100.42-8.08 103.39-11.75 103.49-17.5L103.49-17.5Q103.39-23.25 100.42-26.93 97.44-30.6 91.89-30.6L91.89-30.6 89.19-30.6 89.19-4.4ZM118.99-12.8L118.99 0 114.54 0 114.54-22Q114.54-27.4 118.02-31.2 121.49-35 126.99-35L126.99-35 138.44-35 138.44 0 133.74 0 133.74-30.6 126.99-30.6Q123.34-30.6 121.17-28.45 118.99-26.3 118.99-21.6L118.99-21.6 118.99-17.35Q121.79-20.3 126.99-20.3L126.99-20.3 131.54-20.3 131.54-15.9 126.99-15.9Q124.09-15.9 122.27-15.2 120.44-14.5 118.99-12.8L118.99-12.8ZM150.14-15.9L150.14 0 145.44 0 145.44-35 150.14-35 150.14-20.3 165.34-20.3 165.34-35 170.04-35 170.04 0 165.34 0 165.34-15.9 150.14-15.9Z" opacity="1" transform="matrix(1,0,0,1,0,0)" fill="#ffffff" class="undefined-text-0" data-fill-palette-color="primary" id="text-0"></path></svg></g></svg></g></svg></g></svg></g></svg></g></svg></g></svg></g><g mask="url(#e5ce28da-0d0e-4f14-92d4-1f5a57b1a483)"><g transform="matrix(4.019672131147541, 0, 0, 4.019672131147541, 30.13966906438108, 1)"><svg xmlns="http://www.w3.org/2000/svg" xmlns:xlink="http://www.w3.org/1999/xlink" version="1.1" x="0" y="0" viewBox="8.300000190734863 19.5 83.4000015258789 61" style="enable-background:new 0 0 100 100;" xml:space="preserve" height="61" width="83.4000015258789" class="icon-none" data-fill-palette-color="accent" id="none"><g fill="#00d1cd" data-fill-palette-color="accent"><g fill="#00d1cd" data-fill-palette-color="accent"><path d="M71.1 64.5c-1.4 0-2.7-0.5-3.6-1.5l-8-8c-2-2-2-5.3 0-7.3 2-2 5.3-2 7.3 0l8 8c2 2 2 5.3 0 7.3C73.7 64 72.5 64.5 71.1 64.5zM63 49c-0.6 0-1.2 0.2-1.7 0.7-0.9 0.9-0.9 2.4 0 3.3l8 8c0.9 0.9 2.5 0.9 3.3 0 0.9-0.9 0.9-2.4 0-3.3l-8-8C64.2 49.2 63.6 49 63 49z" fill="#00d1cd" data-fill-palette-color="accent"></path></g><g fill="#00d1cd" data-fill-palette-color="accent"><path d="M65.8 69.9c-1.4 0-2.7-0.5-3.6-1.5l-8-8c-1-1-1.5-2.3-1.5-3.6 0-1.4 0.5-2.7 1.5-3.6 1-1 2.3-1.5 3.6-1.5s2.7 0.5 3.6 1.5l8 8c2 2 2 5.3 0 7.3l-1-1 1 1C68.4 69.3 67.1 69.9 65.8 69.9zM57.7 54.3c-0.6 0-1.2 0.2-1.7 0.7-0.4 0.4-0.7 1-0.7 1.7 0 0.6 0.2 1.2 0.7 1.7l8 8c0.9 0.9 2.5 0.9 3.3 0l0 0c0.4-0.4 0.7-1 0.7-1.7 0-0.6-0.2-1.2-0.7-1.7l-8-8C58.9 54.5 58.3 54.3 57.7 54.3z" fill="#00d1cd" data-fill-palette-color="accent"></path></g><g fill="#00d1cd" data-fill-palette-color="accent"><path d="M60.4 75.2c-1.4 0-2.7-0.5-3.6-1.5l-8-8c-2-2-2-5.3 0-7.3 2-2 5.3-2 7.3 0l8 8c2 2 2 5.3 0 7.3C63.1 74.6 61.8 75.2 60.4 75.2zM52.4 59.6c-0.6 0-1.2 0.2-1.7 0.7-0.9 0.9-0.9 2.4 0 3.3l8 8c0.9 0.9 2.5 0.9 3.3 0 0.9-0.9 0.9-2.4 0-3.3l-8-8C53.6 59.9 53 59.6 52.4 59.6z" fill="#00d1cd" data-fill-palette-color="accent"></path></g><g fill="#00d1cd" data-fill-palette-color="accent"><path d="M55.1 80.5c-1.3 0-2.6-0.5-3.6-1.5l-8-8c-1-1-1.5-2.3-1.5-3.6 0-1.4 0.5-2.7 1.5-3.6 1-1 2.3-1.5 3.6-1.5 1.4 0 2.7 0.5 3.6 1.5l8 8c2 2 2 5.3 0 7.3C57.7 80 56.4 80.5 55.1 80.5zM47.1 65c-0.6 0-1.2 0.2-1.7 0.7-0.4 0.4-0.7 1-0.7 1.7 0 0.6 0.2 1.2 0.7 1.7l8 8c0.9 0.9 2.4 0.9 3.3 0 0.9-0.9 0.9-2.4 0-3.3l-8-8C48.3 65.2 47.7 65 47.1 65z" fill="#00d1cd" data-fill-palette-color="accent"></path></g><g fill="#00d1cd" data-fill-palette-color="accent"><path d="M15.6 44.9c-1.2 0-2.4-0.5-3.2-1.3L8.7 40c-0.3-0.3-0.4-0.6-0.4-1 0-0.4 0.1-0.7 0.4-1l18.1-18.1c0.3-0.3 0.6-0.4 1-0.4l0 0c0.4 0 0.7 0.1 1 0.4l5.8 5.8c0.5 0.5 0.5 1.4 0 2L18.8 43.6h0 0C17.9 44.4 16.8 44.9 15.6 44.9zM11.7 39l2.6 2.6c0.7 0.7 1.8 0.7 2.5 0 0 0 0 0 0 0l14.9-14.9-3.9-3.9L11.7 39z" fill="#00d1cd" data-fill-palette-color="accent"></path></g><g fill="#00d1cd" data-fill-palette-color="accent"><path d="M44.9 80.5c-1.4 0-2.7-0.5-3.6-1.5L41.2 79c-1-1-1.5-2.4-1.5-3.8-1.4 0-2.8-0.5-3.8-1.5l-0.1-0.1c-1-1-1.5-2.4-1.5-3.8-1.3 0-2.7-0.5-3.8-1.5l-0.1-0.1c-1-1-1.5-2.2-1.5-3.6 0 0 0-0.1 0-0.1-1.3 0-2.7-0.5-3.8-1.5L25.2 63c-1-1-1.5-2.2-1.5-3.6s0.5-2.7 1.5-3.6l1.5-1.5L16.4 44c-0.3-0.3-0.4-0.6-0.4-1 0-0.4 0.1-0.7 0.4-1l14.3-14.3c0.3-0.3 0.6-0.4 1-0.4l0 0c0.4 0 0.7 0.1 1 0.4l2.9 2.9c1.4 1.4 3.6 1.4 5 0 1.2-1.2 2.8-1.8 4.5-1.8s3.3 0.7 4.5 1.8l11.8 11.8c0.3 0.3 0.4 0.6 0.4 1s-0.1 0.7-0.4 1l-2.5 2.5c-0.9 0.9-2.2 1.4-3.5 1.4s-2.6-0.5-3.5-1.4L45 40 27.2 57.7c-0.4 0.4-0.7 1-0.7 1.6s0.2 1.2 0.7 1.6l0.1 0.1c0.9 0.9 2.4 0.9 3.3 0 0.5-0.5 1.4-0.5 2 0 0.3 0.3 0.4 0.6 0.4 1 0 0.4-0.1 0.7-0.4 1-0.4 0.4-0.7 1-0.7 1.6 0 0.6 0.2 1.2 0.7 1.6l0.1 0.1c0.9 0.9 2.4 0.9 3.3 0 0.5-0.5 1.4-0.5 2 0 0.5 0.5 0.6 1.4 0 2-0.9 0.9-0.9 2.4 0 3.3l0.1 0.1c0.9 0.9 2.4 0.9 3.3 0 0.5-0.5 1.4-0.5 2 0 0.3 0.3 0.4 0.6 0.4 1 0 0.4-0.1 0.7-0.4 1-0.4 0.4-0.7 1-0.7 1.6 0 0.6 0.2 1.2 0.7 1.6l0.1 0.1c0.9 0.9 2.4 0.9 3.3 0l2.4-2.4c0.5-0.5 1.4-0.5 2 0s0.5 1.4 0 2L48.5 79C47.5 80 46.3 80.5 44.9 80.5zM19.4 43l9.3 9.3L44 37c0.5-0.5 1.4-0.5 2 0l7.8 7.8c0.8 0.8 2.2 0.8 3 0l1.5-1.5L47.5 32.5c-0.7-0.7-1.5-1-2.5-1s-1.8 0.4-2.5 1c-2.5 2.5-6.5 2.5-8.9 0l-1.9-1.9L19.4 43z" fill="#00d1cd" data-fill-palette-color="accent"></path></g><g fill="#00d1cd" data-fill-palette-color="accent"><path d="M71.3 55.6c-0.4 0-0.7-0.1-1-0.4-0.5-0.5-0.5-1.4 0-2L80.6 43 68.2 30.6l-1.9 1.9c-1.2 1.2-2.8 1.8-4.5 1.8s-3.3-0.7-4.5-1.8c-1.4-1.4-3.6-1.4-5 0l-1.3 1.3c-0.5 0.5-1.4 0.5-2 0-0.5-0.5-0.5-1.4 0-2l1.3-1.3c2.5-2.5 6.5-2.5 8.9 0 0.7 0.7 1.5 1 2.5 1s1.8-0.4 2.5-1l2.9-2.9c0.5-0.5 1.4-0.5 2 0L83.6 42c0.5 0.5 0.5 1.4 0 2L72.3 55.2C72.1 55.5 71.7 55.6 71.3 55.6z" fill="#00d1cd" data-fill-palette-color="accent"></path></g><g fill="#00d1cd" data-fill-palette-color="accent"><path d="M84.4 44.9c-1.2 0-2.4-0.5-3.2-1.3l0 0c0 0 0 0 0 0L65.3 27.7c-0.5-0.5-0.5-1.4 0-2l5.8-5.8c0.5-0.5 1.5-0.5 2 0L91.3 38c0.3 0.3 0.4 0.6 0.4 1 0 0.4-0.1 0.7-0.4 1l-3.6 3.6C86.8 44.4 85.6 44.9 84.4 44.9zM68.3 26.7l14.9 14.9c0 0 0 0 0 0 0.7 0.7 1.8 0.7 2.5 0l2.6-2.6L72.2 22.9 68.3 26.7z" fill="#00d1cd" data-fill-palette-color="accent"></path></g></g></svg></g></g></svg></g><defs><mask id="b19f49cd-99e5-4dd9-856a-f89afce9893a"><rect width="640" height="400" fill="white"></rect><rect width="348.05760000000004" height="97.1599264190703" fill="black" y="75.02003679046484" x="23.731199999999973" id="transform-me"></rect></mask><mask id="4a04acc7-4a1a-4af0-90fe-44f96acfa905"><rect width="640" height="400" fill="white"></rect><rect width="348.05760000000004" height="97.1599264190703" fill="black" y="75.02003679046484" x="23.731199999999973" id="transform-me"></rect></mask><mask id="c3ea39dc-b713-4874-892b-183175a33b52"><rect width="640" height="400" fill="white"></rect><rect width="348.05760000000004" height="97.1599264190703" fill="black" y="75.02003679046484" x="23.731199999999973" id="transform-me"></rect></mask><mask id="eb820e14-c446-4887-83f9-c0abcb9bc4c5"><rect width="640" height="400" fill="white"></rect><rect width="348.05760000000004" height="97.1599264190703" fill="black" y="75.02003679046484" x="23.731199999999973" id="transform-me"></rect></mask><mask id="c608c001-9425-40cd-a2ea-eeb6d0d859ec"><rect width="640" height="400" fill="white"></rect><rect width="348.05760000000004" height="97.1599264190703" fill="black" y="75.02003679046484" x="23.731199999999973" id="transform-me"></rect></mask><mask id="f2db05c8-d24e-424a-aa86-f47a7d50f0c4"><rect width="640" height="400" fill="white"></rect><rect width="348.05760000000004" height="97.1599264190703" fill="black" y="75.02003679046484" x="23.731199999999973" id="transform-me"></rect></mask><mask id="d8db1355-06f6-4be3-b690-981e913a7e86"><rect width="640" height="400" fill="white"></rect><rect width="348.05760000000004" height="97.1599264190703" fill="black" y="75.02003679046484" x="23.731199999999973" id="transform-me"></rect></mask><mask id="709e44b4-2a14-4c2e-ac1f-24def9f7675e"><rect width="640" height="400" fill="white"></rect><rect width="348.05760000000004" height="97.1599264190703" fill="black" y="75.02003679046484" x="23.731199999999973" id="transform-me"></rect></mask><mask id="c81b4965-17b0-4731-8a91-bfa3011cf98f"><rect width="640" height="400" fill="white"></rect><rect width="348.05760000000004" height="97.1599264190703" fill="black" y="75.02003679046484" x="23.731199999999973" id="transform-me"></rect></mask><mask id="f99285a6-0705-44a5-9c54-697ed74e6491"><rect width="640" height="400" fill="white"></rect><rect width="348.05760000000004" height="97.1599264190703" fill="black" y="75.02003679046484" x="23.731199999999973" id="transform-me"></rect></mask><mask id="e866b43c-ed8d-4b3b-9fc1-73aeb173aacf"><rect width="640" height="400" fill="white"></rect><rect width="348.05760000000004" height="97.1599264190703" fill="black" y="75.02003679046484" x="23.731199999999973" id="transform-me"></rect></mask><mask id="aac7bfcd-5874-45d9-898e-22a87a155d32"><rect width="640" height="400" fill="white"></rect><rect width="348.05760000000004" height="97.1599264190703" fill="black" y="75.02003679046484" x="23.731199999999973" id="transform-me"></rect></mask><mask id="e5ce28da-0d0e-4f14-92d4-1f5a57b1a483"><rect width="640" height="400" fill="white"></rect><rect width="348.05760000000004" height="97.1599264190703" fill="black" y="75.02003679046484" x="23.731199999999973" id="transform-me"></rect></mask></defs></svg><rect width="395.52" height="247.2" fill="none" stroke="none" visibility="hidden"></rect></g></svg></g></svg>